HIERARCHY
ROOT Hips
{
	OFFSET -3.958830 18.904000 13.208200
	CHANNELS 6 Xposition Yposition Zposition Zrotation Yrotation Xrotation 
	JOINT LHipJoint
	{
		OFFSET 0.000000 0.000000 0.000000
		CHANNELS 3 Zrotation Yrotation Xrotation
		JOINT LeftUpLeg
		{
			OFFSET 1.800000 -1.400000 0.085000
			CHANNELS 3 Zrotation Yrotation Xrotation
			JOINT LeftLeg
			{
				OFFSET 2.215000 -6.000000 0.000000
				CHANNELS 3 Zrotation Yrotation Xrotation
				JOINT LeftFoot
				{
					OFFSET 2.500000 -6.900000 0.000000
					CHANNELS 3 Zrotation Yrotation Xrotation
					JOINT LeftToeBase
					{
						OFFSET 0.200000 -0.500000 1.950000
						CHANNELS 3 Zrotation Yrotation Xrotation
						End Site
						{
							OFFSET 0.000000 0.000000 0.000000
						}
					}
				}
			}
		}
	}
	JOINT RHipJoint
	{
		OFFSET 0.000000 0.000000 0.000000
		CHANNELS 3 Zrotation Yrotation Xrotation
		JOINT RightUpLeg
		{
			OFFSET -1.800000 -1.400000 0.085000
			CHANNELS 3 Zrotation Yrotation Xrotation
			JOINT RightLeg
			{
				OFFSET -2.215000 -6.000000 0.000000
				CHANNELS 3 Zrotation Yrotation Xrotation
				JOINT RightFoot
				{
					OFFSET -2.500000 -6.900000 0.000000
					CHANNELS 3 Zrotation Yrotation Xrotation
					JOINT RightToeBase
					{
						OFFSET -0.200000 -0.500000 1.950000
						CHANNELS 3 Zrotation Yrotation Xrotation
						End Site
						{
							OFFSET 0.000000 0.000000 0.000000
						}
					}
				}
			}
		}
	}
	JOINT LowerBack
	{
		OFFSET 0.000000 0.000000 0.000000
		CHANNELS 3 Zrotation Yrotation Xrotation
		JOINT Spine
		{
			OFFSET -0.087000 1.940000 -0.288900
			CHANNELS 3 Zrotation Yrotation Xrotation
			JOINT Spine1
			{
				OFFSET 0.000000 1.950000 0.060000
				CHANNELS 3 Zrotation Yrotation Xrotation
				JOINT Neck
				{
					OFFSET 0.000000 0.000000 0.000000
					CHANNELS 3 Zrotation Yrotation Xrotation
					JOINT Neck1
					{
						OFFSET 0.000000 1.600000 0.340000
						CHANNELS 3 Zrotation Yrotation Xrotation
						JOINT Head
						{
							OFFSET 0.000000 1.667000 -0.240000
							CHANNELS 3 Zrotation Yrotation Xrotation
							End Site
							{
								OFFSET 0.000000 0.000000 0.000000
							}
						}
					}
				}
				JOINT LeftShoulder
				{
					OFFSET 0.000000 0.000000 0.000000
					CHANNELS 3 Zrotation Yrotation Xrotation
					JOINT LeftArm
					{
						OFFSET 2.700000 1.550000 -0.730000
						CHANNELS 3 Zrotation Yrotation Xrotation
						JOINT LeftForeArm
						{
							OFFSET 5.450000 0.000000 0.000000
							CHANNELS 3 Zrotation Yrotation Xrotation
							JOINT LeftHand
							{
								OFFSET 3.450000 0.000000 0.000000
								CHANNELS 3 Zrotation Yrotation Xrotation
								JOINT LeftHandIndex1
								{
									OFFSET 0.750000 0.000000 0.000000
									CHANNELS 3 Zrotation Yrotation Xrotation
									End Site
									{
										OFFSET 0.000000 0.000000 0.000000
									}
								}
							}
						}
					}
				}
				JOINT RightShoulder
				{
					OFFSET 0.000000 0.000000 0.000000
					CHANNELS 3 Zrotation Yrotation Xrotation
					JOINT RightArm
					{
						OFFSET -2.700000 1.550000 -0.730000
						CHANNELS 3 Zrotation Yrotation Xrotation
						JOINT RightForeArm
						{
							OFFSET -5.450000 0.000000 0.000000
							CHANNELS 3 Zrotation Yrotation Xrotation
							JOINT RightHand
							{
								OFFSET -3.450000 0.000000 0.000000
								CHANNELS 3 Zrotation Yrotation Xrotation
								JOINT RightHandIndex1
								{
									OFFSET -0.750000 0.000000 0.000000
									CHANNELS 3 Zrotation Yrotation Xrotation
									End Site
									{
										OFFSET 0.000000 0.000000 0.000000
									}
								}
							}
						}
					}
				}
			}
		}
	}
}
MOTION
Frames: 5
Frame Time: 0.016667
0.686010 17.495180 -2.179670 -118.143386 -75.084893 120.399838 -16.122460 12.270155 1.558744 7.044432 -1.201274 -10.951229 -5.569578 4.528299 4.973940 -0.495556 4.049215 3.391336 0.421410 0.253420 0.177440 18.061813 -6.130214 6.058068 -21.992275 6.789407 -58.366002 89.016028 -42.558153 26.797898 -2.664820 -12.240802 0.505427 0.293570 0.525920 0.269270 -5.833942 0.301009 -9.149393 37.156615 -9.389032 11.566097 -18.841338 -2.273052 10.236941 5.355796 -4.385735 -11.380832 -7.624749 2.438237 23.044436 -2.383090 0.198640 -5.564510 -7.585393 -25.433307 4.603741 -9.179313 -31.607735 2.316742 133.780187 -75.916914 -129.526248 -4.090414 3.397599 0.088710 0.375910 -0.257680 0.260660 -3.544233 25.863505 5.973772 7.556920 21.602958 -4.825482 -135.291506 68.552559 -130.994063 1.714254 -2.300000 -0.157170 0.242090 0.020970 -0.030010 
0.626910 17.505340 -2.164680 -126.336934 -72.616427 128.421533 -16.226785 11.862577 1.616415 8.809577 -1.069728 -8.204028 -7.215211 4.575423 1.786148 -0.468201 4.423827 3.278266 0.342610 0.108120 0.170190 17.981488 -6.242061 6.051262 -21.018385 7.207717 -60.132757 90.660731 -42.670904 26.210842 -2.668307 -12.254523 0.490064 0.227070 0.533480 0.266820 -5.964970 0.053585 -9.275891 37.689550 -10.294968 11.732116 -18.688687 -2.905059 10.564405 5.506225 -4.233626 -11.752485 -7.495012 3.065478 23.731638 -2.593020 1.035500 -5.465960 -7.003039 -25.429730 5.469044 -9.799169 -28.851667 1.214509 139.872858 -72.757215 -134.950269 -4.074436 3.439865 0.163210 0.368270 -0.280730 0.203120 -4.347593 25.769845 6.053712 9.308132 22.284026 -4.963564 -136.463981 68.181517 -132.607942 1.695074 -2.252210 -0.221730 0.243950 0.096610 -0.086560 
0.591420 17.527830 -2.136410 -145.303071 -63.766483 149.195682 -16.081516 11.067243 1.373517 9.603714 -1.184486 -8.560707 -7.367934 4.524917 2.497620 -0.500051 4.213097 3.338858 0.359370 0.113590 0.171500 18.140922 -6.935400 6.251398 -21.564318 8.933043 -61.420706 93.541712 -38.359374 22.969552 -2.633813 -11.827595 0.615910 0.201380 0.486970 0.256340 -6.224385 -0.042978 -9.362972 39.134851 -9.054543 12.610061 -19.685259 -0.762530 10.375955 5.324840 -4.987609 -12.212817 -8.763823 0.959476 24.357124 -1.862510 -1.415790 -7.667870 -6.627885 -24.686037 5.126902 -10.984008 -29.284141 1.599660 143.836622 -69.542276 -137.563086 -3.963459 3.403633 0.233150 0.293100 -0.229740 0.214000 -4.249037 26.194850 7.174066 13.115666 22.145824 -4.895514 -135.698815 64.434345 -129.648815 1.722932 -2.161176 -0.207080 0.259380 0.085010 -0.079010 
0.525500 17.545860 -2.083660 -153.976698 -55.803029 158.114510 -15.682727 10.856256 1.246977 8.987662 -1.033677 -8.263384 -6.864042 4.589512 4.146708 -0.516117 4.020697 3.403214 0.373830 0.153100 0.157150 18.509487 -7.422730 6.347187 -22.606262 7.999382 -59.129002 94.847305 -34.029548 19.769097 -2.537640 -11.223688 0.786917 0.205040 0.451920 0.199550 -6.091712 -0.007381 -9.278172 38.816662 -9.031422 13.333134 -20.595585 -0.468301 11.222947 5.163866 -5.038639 -12.305241 -9.275171 -1.650199 26.098213 0.151930 -5.031370 -10.513280 -6.386499 -25.479847 5.154743 -11.167859 -31.459858 2.418250 129.299194 -69.183075 -119.474572 -3.956451 3.016678 0.282530 0.207320 -0.183740 0.227320 -4.252752 27.088414 7.517518 14.074297 24.016457 -4.166393 -128.013781 62.471356 -118.295746 1.840232 -1.812679 -0.203490 0.329670 0.071080 -0.051950 
0.452080 17.525980 -2.014670 -157.736124 -48.345500 163.131370 -15.384242 10.783397 1.163130 8.962786 -1.217961 -9.374043 -6.703405 4.810818 6.646809 -0.644950 4.049597 3.388557 0.360930 0.108420 0.121960 18.796237 -7.638723 6.542839 -24.744514 6.218076 -60.022958 92.819143 -35.497378 21.035839 -2.511669 -11.344612 0.740584 0.222550 0.523580 0.216140 -5.884466 -0.039387 -9.182764 37.693186 -8.718137 13.010775 -18.920245 -0.752185 12.088296 4.718486 -3.965378 -11.936195 -7.329094 -4.228623 26.016187 1.220910 -7.936140 -10.947210 -5.861884 -26.942342 4.899745 -11.703527 -34.779281 3.675453 108.787210 -67.906794 -91.232066 -3.995615 1.584146 0.302020 0.239860 -0.226990 0.228830 -3.965828 27.596956 7.514457 13.961660 25.518955 -3.770565 -121.729333 60.801330 -108.083211 1.834312 -1.421557 -0.247860 0.387410 0.132020 -0.054120 
